<svg version="1.1" id="Layer_1" xmlns="http://www.w3.org/2000/svg" xmlns:xlink="http://www.w3.org/1999/xlink" x="0px" y="0px"
	 width="100%" viewBox="0 0 1024 544" enable-background="new 0 0 1024 544" xml:space="preserve">
<path fill="#000000" opacity="1.000000" stroke="none" 
	d="
M450.149719,190.420425 
	C458.296722,167.063934 486.134491,144.031693 503.391754,146.196548 
	C503.101898,148.003830 501.423157,148.293076 500.244598,149.039612 
	C475.515045,164.703873 471.680939,197.432602 492.111542,218.455292 
	C501.547638,228.164825 513.422546,234.320419 524.856140,241.145935 
	C538.433899,249.251526 552.379822,256.880432 563.304688,268.685242 
	C592.480957,300.211456 584.386841,349.866180 546.751587,370.787750 
	C538.955566,375.121552 530.707703,378.087433 522.034485,379.963379 
	C520.273682,380.344269 518.460693,380.746246 516.623962,380.090607 
	C516.275452,378.414703 517.732727,378.174103 518.608582,377.675903 
	C549.912476,359.870239 555.235779,316.338043 522.505798,291.025391 
	C510.467499,281.715210 497.116364,274.484253 484.343964,266.336090 
	C469.589600,256.923584 456.949982,245.573044 450.816833,228.579605 
	C446.325500,216.135284 446.432648,203.471939 450.149719,190.420425 
z"/>
<path fill="#000000" opacity="1.000000" stroke="none" 
	d="
M469.488464,375.794556 
	C445.766602,365.427155 437.457428,339.222626 451.532806,319.926605 
	C455.333954,314.715607 460.150055,310.631165 466.398499,308.603821 
	C472.443176,306.642609 475.162445,308.815613 474.206329,315.144623 
	C473.430023,320.283264 472.631744,325.385986 473.769653,330.507294 
	C476.352234,342.130768 485.464081,350.626282 496.251343,351.682129 
	C510.380432,353.065063 522.083191,346.657074 527.823059,334.535034 
	C531.126526,327.558197 531.413025,320.453979 529.277100,313.132080 
	C528.886780,311.794037 527.729187,310.516113 528.960632,308.433777 
	C532.929138,312.502258 534.907898,317.352844 536.238525,322.419098 
	C543.011475,348.206696 525.291870,373.816132 497.885620,378.384827 
	C488.244751,379.991974 479.000092,378.988403 469.488464,375.794556 
z"/>
<path fill="#000000" opacity="1.000000" stroke="none" 
	d="
M486.003967,190.517853 
	C483.557098,161.608124 512.110840,142.879471 537.551575,146.111511 
	C548.402527,147.490021 558.309937,151.076508 565.986816,159.229630 
	C575.176208,168.989044 578.204651,180.528183 574.220886,193.350464 
	C571.309814,202.719986 564.711060,208.897766 555.067017,211.292679 
	C548.765320,212.857620 546.614868,210.748306 547.716614,204.363190 
	C549.413330,194.529282 547.507446,185.808182 539.985657,178.849838 
	C530.970154,170.509613 517.899414,169.292511 507.109833,175.630112 
	C496.859894,181.650742 492.156586,193.260391 495.081604,205.360779 
	C495.540375,207.258713 496.068420,209.139908 496.039795,211.265442 
	C489.729797,205.996567 487.477051,198.695328 486.003967,190.517853 
z"/>
<path fill="#000000" opacity="1.000000" stroke="none" 
	d="
M564.615906,145.137177 
	C557.336243,142.909164 553.896240,137.652771 552.960815,131.088669 
	C551.217407,118.855003 554.432251,107.953278 563.787231,99.447548 
	C569.423035,94.323334 576.105347,91.771782 583.501770,94.973236 
	C590.571838,98.033432 592.872620,104.585602 593.259338,111.692322 
	C593.949341,124.370598 589.440674,134.773087 578.807434,142.147064 
	C574.657898,145.024689 570.006104,145.904358 564.615906,145.137177 
z"/>
<path fill="#000000" opacity="1.000000" stroke="none" 
	d="
M544.598633,122.209778 
	C543.114319,124.874275 542.058960,127.383492 540.431396,129.439835 
	C534.172180,137.348129 523.914978,136.394318 519.055237,127.584923 
	C514.075989,118.558868 515.680603,105.332977 522.674072,97.757019 
	C529.822510,90.013206 539.730591,91.429169 544.171814,100.956802 
	C547.352661,107.780426 547.094238,114.810860 544.598633,122.209778 
z"/>
<path fill="#000000" opacity="1.000000" stroke="none" 
	d="
M489.576111,135.619781 
	C481.466492,127.138199 479.971893,115.502365 485.573547,106.488297 
	C490.187225,99.064079 499.391235,98.644989 504.769226,105.614250 
	C510.196686,112.647591 510.886658,123.956253 506.353638,131.581573 
	C502.446777,138.153625 496.685699,139.648468 489.576111,135.619781 
z"/>
<path fill="#000000" opacity="1.000000" stroke="none" 
	d="
M469.546143,149.550934 
	C462.107452,149.644119 458.332367,145.109390 455.901154,139.367477 
	C453.188293,132.960556 452.831696,126.392029 457.314392,120.462387 
	C459.231201,117.926888 462.101715,116.946159 465.293793,117.293365 
	C471.565216,117.975487 476.991486,124.715607 478.175507,133.214554 
	C479.257416,140.980377 476.316895,146.763062 469.546143,149.550934 
z"/>
<path fill="#000000" opacity="1.000000" stroke="none" 
	d="
M433.891815,157.642059 
	C433.431519,155.976349 432.962219,154.713501 432.795746,153.411926 
	C432.012024,147.284302 434.009216,142.829346 438.164490,141.215546 
	C442.379700,139.578461 447.936432,141.578415 451.139160,146.201019 
	C454.029602,150.372818 455.880676,154.998413 455.157318,160.213165 
	C454.140411,167.544373 448.130341,170.510864 441.626434,166.943924 
	C437.987671,164.948273 435.658691,161.765945 433.891815,157.642059 
z"/>
</svg>